<svg width="12" height="13" viewBox="0 0 12 13" fill="none" xmlns="http://www.w3.org/2000/svg">
<path fill-rule="evenodd" clip-rule="evenodd" d="M8.65411 3.31723C8.64374 3.27209 8.63298 3.22685 8.62172 3.18156C8.47531 2.59082 8.24478 1.94892 7.86883 1.44335C7.48119 0.922024 6.91519 0.520386 6.14273 0.520386C5.37027 0.520386 4.80426 0.922024 4.41662 1.44335C4.04069 1.94892 3.81013 2.59082 3.66371 3.18157C3.65249 3.22685 3.6417 3.27209 3.63132 3.31723H2.74382C1.86793 3.31723 1.14205 4.00221 1.08379 4.88371L0.677099 11.0368C0.613085 12.0054 1.37473 12.8265 2.33713 12.8265H9.94831C10.9107 12.8265 11.6724 12.0054 11.6084 11.0368L11.2016 4.88371C11.1434 4.00221 10.4175 3.31723 9.54164 3.31723H8.65411ZM3.92444 6.11408C4.2422 6.11408 4.47794 5.87266 4.47902 5.55369C4.4791 5.54038 4.47926 5.52708 4.47948 5.51378C4.47997 5.4843 4.48096 5.43979 4.483 5.38239C4.48706 5.26749 4.49526 5.10162 4.51176 4.90195C4.52346 4.76027 4.53923 4.60301 4.56039 4.43597H7.72509C7.74622 4.60301 7.76197 4.76027 7.77372 4.90196C7.79019 5.10162 7.7984 5.26749 7.80245 5.38239C7.8045 5.43979 7.8055 5.4843 7.806 5.51378C7.80622 5.52749 7.80639 5.54121 7.80644 5.55493C7.80644 5.55493 7.80644 6.11408 8.36101 6.11408C8.91559 6.11408 8.91559 5.55396 8.91559 5.55396C8.91553 5.53435 8.91531 5.51474 8.91498 5.49513C8.91437 5.45906 8.9132 5.40743 8.91087 5.34246C8.90633 5.21265 8.89717 5.02891 8.87898 4.80904C8.86956 4.69441 8.85752 4.56917 8.84233 4.43597H9.54164C9.83362 4.43597 10.0756 4.6643 10.095 4.95813L10.5017 11.1112C10.523 11.4341 10.2691 11.7078 9.94831 11.7078H2.33713C2.01633 11.7078 1.76245 11.4341 1.78379 11.1112L2.19048 4.95813C2.2099 4.6643 2.45186 4.43597 2.74382 4.43597H3.44312C3.42791 4.56917 3.41592 4.69441 3.40645 4.80905C3.38828 5.02891 3.37915 5.21265 3.37456 5.34246C3.37226 5.40743 3.37109 5.45906 3.37049 5.49513C3.37017 5.51435 3.36993 5.53357 3.36987 5.5528C3.36945 5.87199 3.60741 6.11408 3.92444 6.11408ZM4.77489 3.31723H7.51058C7.38236 2.84357 7.20806 2.41925 6.98152 2.11459C6.74527 1.79686 6.47941 1.63912 6.14273 1.63912C5.80605 1.63912 5.54019 1.79686 5.30394 2.11459C5.0774 2.41925 4.90311 2.84357 4.77489 3.31723Z" fill="#0F0F0F"/>
</svg>
