<svg width="16" height="16" viewBox="0 0 16 16" fill="none" xmlns="http://www.w3.org/2000/svg">
<path d="M15 2.75H13.4444M15 8H11.1111M15 13.25H11.1111M4.11111 15V9.36605C4.11111 9.18405 4.11111 9.09305 4.09523 9.00599C4.08114 8.92881 4.05784 8.85409 4.02596 8.78382C3.99002 8.70472 3.93949 8.63367 3.83841 8.49149L1.2727 4.88348C1.17162 4.74135 1.12109 4.67028 1.08515 4.59115C1.05327 4.52094 1.02997 4.4462 1.01588 4.36898C1 4.28193 1 4.19092 1 4.00891V2.4C1 1.90996 1 1.66493 1.08477 1.47776C1.15934 1.31312 1.27833 1.17926 1.42467 1.09537C1.59105 1 1.80885 1 2.24444 1H9.08889C9.52452 1 9.7423 1 9.90867 1.09537C10.055 1.17926 10.174 1.31312 10.2486 1.47776C10.3333 1.66493 10.3333 1.90996 10.3333 2.4V4.00891C10.3333 4.19092 10.3333 4.28193 10.3175 4.36898C10.3034 4.4462 10.2801 4.52094 10.2482 4.59115C10.2122 4.67028 10.1617 4.74135 10.0606 4.88348L7.49491 8.49149C7.39388 8.63367 7.34332 8.70472 7.30739 8.78382C7.2755 8.85409 7.25217 8.92881 7.23809 9.00599C7.22222 9.09305 7.22222 9.18405 7.22222 9.36605V12.375L4.11111 15Z" stroke="#FF6E05" stroke-width="1.5" stroke-linecap="round" stroke-linejoin="round"/>
</svg>
