<svg width="123" height="15" viewBox="0 0 123 15" fill="none" xmlns="http://www.w3.org/2000/svg">
<path d="M0.312155 4.284V4.056H3.48016C4.60816 4.056 5.65216 4.392 6.13216 4.92C6.45616 5.268 6.62416 5.724 6.62416 6.228C6.62416 7.02 6.19216 7.752 5.47216 8.136C4.95616 8.424 4.32016 8.544 3.37216 8.544C3.06016 8.544 2.85616 8.532 2.54416 8.508V10.692C2.55616 11.58 2.72416 11.748 3.67216 11.772V12H0.312155V11.772C1.22416 11.688 1.30816 11.58 1.32016 10.56V5.364C1.30816 4.488 1.20016 4.38 0.312155 4.284ZM2.54416 4.908V8.028C2.82016 8.052 2.98816 8.064 3.22816 8.064C4.60816 8.064 5.31616 7.464 5.31616 6.3C5.31616 5.064 4.57216 4.5 2.95216 4.5C2.62816 4.5 2.54416 4.584 2.54416 4.908ZM9.53172 6.48C11.0677 6.48 12.1717 7.608 12.1717 9.192C12.1717 10.86 11.0197 12.12 9.50772 12.12C7.99572 12.12 6.87972 10.92 6.87972 9.288C6.87972 7.632 7.95972 6.48 9.53172 6.48ZM9.37572 6.816C8.51172 6.816 7.95972 7.56 7.95972 8.7C7.95972 9.552 8.15172 10.392 8.48772 11.016C8.73972 11.496 9.18372 11.784 9.65172 11.784C10.5517 11.784 11.0917 10.98 11.0917 9.612C11.0917 7.968 10.3837 6.816 9.37572 6.816ZM19.0218 6.6H20.4978V6.78C20.2578 6.864 20.2218 6.924 20.0058 7.428L18.3498 11.58C18.1578 12.06 18.0978 12.168 18.0138 12.168C17.9298 12.168 17.9058 12.108 17.7258 11.652L16.6338 8.82L15.2898 11.7C15.1458 12.024 15.0498 12.168 14.9898 12.168C14.9178 12.168 14.8218 12.012 14.6778 11.64L13.0578 7.536C12.7938 6.924 12.6978 6.804 12.4218 6.78V6.6H14.5818V6.78C14.1618 6.828 14.0298 6.924 14.0298 7.176C14.0298 7.296 14.0538 7.416 14.1018 7.536L15.2898 10.668L16.3818 8.28C16.3098 8.064 16.2258 7.836 16.1418 7.608C15.9018 6.96 15.7578 6.828 15.3138 6.78V6.6H17.7498V6.78C17.1858 6.864 17.0538 6.948 17.0538 7.212C17.0538 7.368 17.0538 7.368 17.2578 7.92L18.2658 10.608L19.3458 7.944C19.4778 7.632 19.5498 7.332 19.5498 7.152C19.5498 6.948 19.4298 6.864 19.0218 6.78V6.6ZM25.4244 10.032L25.6164 10.116C25.1124 11.412 24.2244 12.12 23.0724 12.12C21.6924 12.12 20.8284 11.088 20.8284 9.432C20.8284 8.448 21.1524 7.596 21.7164 7.104C22.1724 6.696 22.7364 6.48 23.3364 6.48C23.9604 6.48 24.5124 6.732 24.8724 7.164C25.1724 7.548 25.2924 7.896 25.3884 8.676H21.6924C21.7164 9.42 21.8004 9.804 22.0164 10.26C22.3644 10.944 22.8804 11.292 23.5644 11.292C24.3324 11.292 24.8484 10.944 25.4244 10.032ZM21.7164 8.292H24.1644C24.0084 7.248 23.7204 6.912 22.9884 6.912C22.2564 6.912 21.8484 7.344 21.7164 8.292ZM25.9084 12V11.82C26.6644 11.688 26.7364 11.616 26.7604 10.992V7.992C26.7604 7.464 26.6524 7.272 26.3524 7.272C26.2084 7.272 26.1004 7.284 25.9324 7.32V7.128C26.6404 6.9 27.0724 6.744 27.7084 6.48L27.7684 6.504V7.608C28.3564 6.744 28.7044 6.48 29.2084 6.48C29.6164 6.48 29.8684 6.72 29.8684 7.116C29.8684 7.452 29.6884 7.656 29.4004 7.656C29.2444 7.656 29.1124 7.596 28.9204 7.416C28.7884 7.296 28.6804 7.236 28.6084 7.236C28.2724 7.236 27.7684 7.836 27.7684 8.22V10.92C27.7924 11.628 27.9844 11.796 28.7884 11.82V12H25.9084ZM34.7671 10.032L34.9591 10.116C34.4551 11.412 33.5671 12.12 32.4151 12.12C31.0351 12.12 30.1711 11.088 30.1711 9.432C30.1711 8.448 30.4951 7.596 31.0591 7.104C31.5151 6.696 32.0791 6.48 32.6791 6.48C33.3031 6.48 33.8551 6.732 34.2151 7.164C34.5151 7.548 34.6351 7.896 34.7311 8.676H31.0351C31.0591 9.42 31.1431 9.804 31.3591 10.26C31.7071 10.944 32.2231 11.292 32.9071 11.292C33.6751 11.292 34.1911 10.944 34.7671 10.032ZM31.0591 8.292H33.5071C33.3511 7.248 33.0631 6.912 32.3311 6.912C31.5991 6.912 31.1911 7.344 31.0591 8.292ZM41.0831 11.304V11.496L39.3191 12.12L39.2711 12.084V11.316C38.8631 11.88 38.4071 12.12 37.7351 12.12C36.4031 12.12 35.5151 11.076 35.5151 9.54C35.5151 7.836 36.6311 6.48 38.0111 6.48C38.4911 6.48 38.8151 6.612 39.2711 6.996V5.124C39.2711 4.632 39.1631 4.512 38.7191 4.512C38.6231 4.512 38.5511 4.512 38.4551 4.524V4.332C39.2231 4.128 39.6431 4.008 40.2191 3.804L40.2791 3.828V10.632C40.2791 11.184 40.3751 11.316 40.8071 11.316C40.8551 11.316 40.9271 11.316 41.0831 11.304ZM39.2711 10.776V8.016C39.2711 7.38 38.6951 6.816 38.0471 6.816C37.1351 6.816 36.5471 7.704 36.5471 9.06C36.5471 10.536 37.2071 11.496 38.2031 11.496C38.5511 11.496 38.8631 11.376 39.0671 11.136C39.1871 11.004 39.2711 10.86 39.2711 10.776ZM44.5151 4.284V4.056H47.8751C49.9391 4.056 51.0191 4.752 51.0191 6.096C51.0191 6.6 50.8391 7.032 50.5391 7.296C50.2511 7.548 49.9991 7.668 49.3751 7.824C50.1551 8.016 50.4791 8.16 50.8391 8.484C51.2231 8.832 51.4271 9.312 51.4271 9.84C51.4271 10.416 51.1871 10.956 50.7551 11.34C50.3111 11.748 49.4471 12 48.5231 12H44.5151V11.772C45.4991 11.736 45.6551 11.592 45.6671 10.692V5.364C45.6551 4.464 45.5231 4.344 44.5151 4.284ZM46.8911 8.088V11.064C46.8911 11.448 47.0591 11.556 47.6471 11.556C48.4391 11.556 48.9311 11.46 49.3151 11.244C49.7951 10.968 50.0471 10.5 50.0471 9.852C50.0471 9.108 49.7231 8.616 49.0391 8.34C48.6071 8.16 48.0551 8.088 46.8911 8.088ZM46.8911 7.62L48.0311 7.608C49.1831 7.596 49.7951 7.092 49.7951 6.144C49.7951 5.076 49.0151 4.464 47.6831 4.5L47.1551 4.512C46.9511 4.524 46.9031 4.596 46.8911 4.86V7.62ZM57.7 6.6V6.78C57.412 6.816 57.28 6.936 57.124 7.32L55.276 12.216C54.616 13.956 54.064 14.616 53.248 14.616C52.732 14.616 52.36 14.316 52.36 13.92C52.36 13.62 52.588 13.392 52.876 13.392C53.068 13.392 53.284 13.44 53.5 13.524C53.632 13.584 53.74 13.608 53.812 13.608C53.98 13.608 54.232 13.38 54.412 13.08C54.616 12.708 54.892 11.976 54.892 11.784C54.892 11.604 54.7 11.16 54.364 10.56C54.304 10.44 54.292 10.428 54.148 10.104L52.78 7.152C52.684 6.948 52.48 6.816 52.168 6.768V6.6H54.64V6.78C54.124 6.804 53.944 6.888 53.944 7.104C53.944 7.224 53.992 7.392 54.064 7.56L55.444 10.596L56.608 7.284C56.644 7.2 56.656 7.128 56.656 7.08C56.656 6.888 56.464 6.78 56.08 6.78V6.6H57.7Z" fill="#252338"/>
<path d="M86.5 9.27064L85.8977 9.85732V12.1145H84.4937V2.88596H85.8977V8.25978L85.9724 8.28457L88.4038 5.62796H90.1345L90.1594 5.70232L87.4262 8.37133L90.626 12.0498L90.6011 12.1118H88.8842L86.4986 9.26926L86.5 9.27064Z" fill="#252338"/>
<path d="M96.1158 6.21602L96.1781 6.19123V5.63071H97.5821V12.1146H96.1781V11.3543L96.1033 11.3295C95.7018 11.7909 95.0123 12.1146 94.1608 12.1146C92.4813 12.1146 91.1397 10.6809 91.1397 8.87263C91.1397 7.06437 92.5312 5.63071 94.2868 5.63071C95.1272 5.63071 95.7032 5.86759 96.1172 6.2174L96.1158 6.21602ZM96.1781 9.99504V7.32604C95.7517 7.0024 95.1508 6.8027 94.4612 6.8027C93.4076 6.8027 92.5436 7.70064 92.5436 8.87263C92.5436 10.0446 93.409 10.9426 94.4612 10.9426C95.1632 10.9426 95.8154 10.6809 96.1781 9.99504Z" fill="#252338"/>
<path d="M99.3612 10.5432C99.9511 10.7553 100.552 10.9178 101.154 10.9178C101.757 10.9178 102.295 10.6933 102.295 10.1699C102.295 9.78296 102.045 9.53368 101.129 9.3216C99.9386 9.04753 99.1231 8.48564 99.1231 7.51334C99.1231 6.2532 100.252 5.63071 101.48 5.63071C102.194 5.63071 102.871 5.81801 103.486 6.07968L103.223 7.1897C102.672 6.97761 102.094 6.8151 101.531 6.8151C101.005 6.8151 100.528 7.05198 100.528 7.51334C100.528 7.83698 100.767 8.10002 101.632 8.28594C102.911 8.56001 103.688 9.10951 103.688 10.1438C103.688 11.4783 102.497 12.1022 101.218 12.1022C100.479 12.1022 99.7517 11.9396 99.0871 11.6904L99.3626 10.5432H99.3612Z" fill="#252338"/>
<path d="M106.493 11.5403V14.8579H105.089V5.62933H106.493V6.37715L106.568 6.40194C106.969 5.95297 107.634 5.62933 108.486 5.62933C110.178 5.62933 111.507 7.06299 111.507 8.87125C111.507 10.6795 110.128 12.1132 108.36 12.1132C107.519 12.1132 106.956 11.9011 106.492 11.5389L106.493 11.5403ZM106.493 7.64968V10.5556C106.907 10.8048 107.496 10.9426 108.185 10.9426C109.239 10.9426 110.103 10.0446 110.103 8.87263C110.103 7.70064 109.237 6.8027 108.185 6.8027C107.496 6.8027 106.856 7.02719 106.493 7.65106V7.64968Z" fill="#252338"/>
<path d="M115.105 12.1008C113.651 12.1008 112.873 11.4149 112.873 10.1052V2.88596H114.277V10.0061C114.277 10.5804 114.654 10.842 115.23 10.8792L115.104 12.1008H115.105Z" fill="#252338"/>
<path d="M119.627 5.62933C121.545 5.62933 123 7.06299 123 8.87125C123 10.6795 121.546 12.1132 119.627 12.1132C117.708 12.1132 116.267 10.6795 116.267 8.87125C116.267 7.06299 117.721 5.62933 119.627 5.62933ZM119.627 10.9412C120.743 10.9412 121.595 10.0432 121.595 8.87125C121.595 7.69926 120.742 6.80133 119.627 6.80133C118.513 6.80133 117.671 7.71165 117.671 8.87125C117.671 10.0309 118.524 10.9412 119.627 10.9412Z" fill="#252338"/>
<path d="M79.2753 0.616338C79.2711 0.636996 79.2642 0.657654 79.2559 0.676935L79.267 0.649391L79.1728 1.04602V1.04878L79.1673 1.06668L79.159 1.09423L79.1631 1.08045C78.9056 2.24694 78.7976 3.44097 78.8461 4.62536C78.8959 5.80974 79.0925 6.98449 79.4387 8.10966C79.7862 9.23483 80.2749 10.3104 80.8952 11.3034C81.5127 12.2963 82.2618 13.2025 83.1078 14.0013C83.3404 14.2217 83.3515 14.588 83.1299 14.8194C82.9084 15.0507 82.5401 15.0617 82.3075 14.8414C82.3006 14.8345 82.2936 14.8276 82.2867 14.8207H82.2853C81.4172 13.9049 80.6668 12.883 80.0645 11.784C79.4622 10.6878 79.0067 9.5144 78.7062 8.30936C78.4072 7.10431 78.2715 5.86346 78.2881 4.63224C78.3061 3.39965 78.4875 2.17395 78.817 0.99369L78.8198 0.98405V0.979918L78.8295 0.952374L78.8239 0.973032C78.8336 0.933094 78.8447 0.901418 78.8544 0.865611L78.8848 0.760944L78.9471 0.552988L78.9582 0.525444C78.9582 0.525444 78.9513 0.539216 78.9499 0.547479C78.9679 0.457961 79.0551 0.400119 79.1451 0.418022C79.2351 0.435926 79.2933 0.522689 79.2753 0.612207V0.616338Z" fill="#252338"/>
<path d="M82.3574 14.3319L82.3435 14.3126C82.3435 14.3126 82.3504 14.3195 82.3546 14.325C82.3546 14.3278 82.3546 14.3305 82.3574 14.3319Z" fill="#252338"/>
<path d="M68.1821 9.78571C68.2029 9.7802 68.225 9.77745 68.2458 9.77607L68.2153 9.77882L68.6141 9.68655H68.6169L68.6362 9.68242L68.6653 9.67691L68.6515 9.67967C69.8159 9.38908 70.9388 8.95388 71.9828 8.38235C73.0267 7.81081 73.9959 7.11257 74.8544 6.30278C75.7128 5.49299 76.4618 4.57715 77.0794 3.58282C77.6969 2.58986 78.1801 1.51978 78.5221 0.409759C78.6162 0.104022 78.9416 -0.0681276 79.249 0.0255217C79.5564 0.119171 79.7294 0.442812 79.6353 0.74855C79.6325 0.75819 79.6297 0.76783 79.6256 0.777471V0.780225C79.1881 1.96048 78.6038 3.08427 77.8838 4.10891C77.1652 5.13354 76.3137 6.06315 75.3625 6.86605C74.4113 7.67034 73.3549 8.34379 72.2389 8.87676C71.1216 9.41111 69.9377 9.79535 68.729 10.0267H68.7193L68.7152 10.0295L68.6861 10.0336L68.7082 10.0295C68.6681 10.0377 68.6349 10.0432 68.5989 10.0501L68.4909 10.0694L68.2763 10.1066L68.2458 10.1093C68.2541 10.1093 68.2624 10.1094 68.2693 10.1066C68.1807 10.13 68.0907 10.0777 68.0658 9.99091C68.0409 9.90415 68.0949 9.81325 68.1821 9.78846V9.78571Z" fill="#252338"/>
<path d="M81.3231 13.7038C80.5989 13.0455 79.807 12.4685 78.9638 11.9823C77.9323 11.3874 76.8315 10.9205 75.6906 10.6065C74.5497 10.2911 73.3756 10.1245 72.2001 10.1107C71.0274 10.0956 69.8547 10.2361 68.7221 10.517C68.4106 10.5941 68.0935 10.4054 68.0173 10.0942C67.9398 9.78571 68.1295 9.47033 68.441 9.39321C68.4507 9.39045 68.4604 9.3877 68.4701 9.3877H68.4729C69.7148 9.14945 70.9845 9.06957 72.2389 9.15495C73.4919 9.23759 74.7311 9.48686 75.9135 9.88211C77.0974 10.2787 78.2216 10.8338 79.2573 11.5086C79.6408 11.7579 80.0119 12.0278 80.3677 12.3142C80.6571 12.7949 80.9769 13.2576 81.3217 13.7025L81.3231 13.7038Z" fill="#252338"/>
</svg>
