<svg width="14" height="14" viewBox="0 0 14 14" fill="none" xmlns="http://www.w3.org/2000/svg">
<path fill-rule="evenodd" clip-rule="evenodd" d="M13.271 0.609846C12.4579 -0.203279 11.1396 -0.203286 10.3265 0.609846L9.16063 1.77571L3.6735 7.26281C3.58456 7.35179 3.52146 7.46325 3.49095 7.58527L2.7969 10.3615C2.73777 10.598 2.80707 10.8482 2.97946 11.0205C3.15185 11.1929 3.40204 11.2623 3.63856 11.2031L6.41471 10.5091C6.53679 10.4785 6.64819 10.4155 6.73716 10.3265L12.1844 4.87929L13.3901 3.67352C14.2033 2.86039 14.2033 1.54205 13.3901 0.728924L13.271 0.609846ZM11.308 1.59138C11.579 1.32034 12.0185 1.32034 12.2895 1.59138L12.4086 1.71045C12.6796 1.9815 12.6796 2.42095 12.4086 2.69199L11.7031 3.3975L10.6236 2.27579L11.308 1.59138ZM9.64188 3.2575L10.7214 4.37921L5.89161 9.20906L4.4241 9.57593L4.79097 8.10844L9.64188 3.2575ZM1.38809 4.28336C1.38809 3.90005 1.69883 3.58932 2.08214 3.58932H5.55236C5.93568 3.58932 6.24641 3.27858 6.24641 2.89527C6.24641 2.51196 5.93568 2.20122 5.55236 2.20122H2.08214C0.932207 2.20122 0 3.13343 0 4.28336V11.9179C0 13.0678 0.932207 14 2.08214 14H9.71663C10.8666 14 11.7988 13.0678 11.7988 11.9179V8.44762C11.7988 8.06437 11.488 7.75357 11.1047 7.75357C10.7214 7.75357 10.4107 8.06437 10.4107 8.44762V11.9179C10.4107 12.3012 10.1 12.6119 9.71663 12.6119H2.08214C1.69883 12.6119 1.38809 12.3012 1.38809 11.9179V4.28336Z" fill="white"/>
</svg>
